<?xml version="1.0" encoding="UTF-8"?>
<svg width="22px" height="19px" viewBox="0 0 22 19" version="1.1" xmlns="http://www.w3.org/2000/svg" xmlns:xlink="http://www.w3.org/1999/xlink">
    <!-- Generator: Sketch 48.2 (47327) - http://www.bohemiancoding.com/sketch -->
    <title>ic_heart</title>
    <desc>Created with Sketch.</desc>
    <defs></defs>
    <g id="001" stroke="none" stroke-width="1" fill="none" fill-rule="evenodd" transform="translate(-29.000000, -26.000000)">
        <g id="ic_heart" transform="translate(30.000000, 26.000000)" stroke="#000000">
            <path d="M19.7339015,6.42100677 C19.7339015,7.96935904 19.0811648,9.36844206 18.03628,10.3526072 L17.9629104,10.4234468 L10.7524464,17.593431 L10.6816067,17.6637647 C10.231016,18.1120784 9.50313859,18.1120784 9.05229484,17.6637647 L8.98145519,17.593431 L1.77099116,10.4234468 L1.69762153,10.3526072 C0.652736744,9.36844206 0,7.96935904 0,6.41847678 C0,3.43309167 2.42119792,1.01189375 5.40911301,1.01189375 C7.14898533,1.01189375 8.6986026,1.83591064 9.68706867,3.11330127 C9.77738922,3.22993369 9.95651233,3.22993369 10.0468329,3.11330127 C11.0355519,1.83591064 12.5851692,1.01189375 14.3273185,1.01189375 C17.3127036,1.01189375 19.7339015,3.43309167 19.7339015,6.42100677 Z" id="Page-1"></path>
        </g>
    </g>
</svg>