<?xml version="1.0" encoding="UTF-8"?>
<svg width="20px" height="17px" viewBox="0 0 20 17" version="1.1" xmlns="http://www.w3.org/2000/svg" xmlns:xlink="http://www.w3.org/1999/xlink">
    <!-- Generator: Sketch 48.2 (47327) - http://www.bohemiancoding.com/sketch -->
    <title>ic_heart_fill</title>
    <desc>Created with Sketch.</desc>
    <defs></defs>
    <g id="001" stroke="none" stroke-width="1" fill="none" fill-rule="evenodd" transform="translate(-608.000000, -1064.000000)">
        <g id="Group-6-Copy" transform="translate(155.000000, 667.000000)" fill="#F96167">
            <g id="Group-4">
                <g id="card">
                    <g id="Group-4-Copy">
                        <g id="Group-2" transform="translate(415.000000, 359.000000)">
                            <path d="M57.7339015,43.4210068 C57.7339015,44.969359 57.0811648,46.3684421 56.03628,47.3526072 L55.9629104,47.4234468 L48.7524464,54.593431 L48.6816067,54.6637647 C48.231016,55.1120784 47.5031386,55.1120784 47.0522948,54.6637647 L46.9814552,54.593431 L39.7709912,47.4234468 L39.6976215,47.3526072 C38.6527367,46.3684421 38,44.969359 38,43.4184768 C38,40.4330917 40.4211979,38.0118938 43.409113,38.0118938 C45.1489853,38.0118938 46.6986026,38.8359106 47.6870687,40.1133013 C47.7773892,40.2299337 47.9565123,40.2299337 48.0468329,40.1133013 C49.0355519,38.8359106 50.5851692,38.0118938 52.3273185,38.0118938 C55.3127036,38.0118938 57.7339015,40.4330917 57.7339015,43.4210068 Z" id="ic_heart_fill"></path>
                        </g>
                    </g>
                </g>
            </g>
        </g>
    </g>
</svg>